#!OML:ASF E:\acrobat2\Project_11_07_03\Capture day 1\Session 1\Acrobat.ASF
:FULLY-SPECIFIED
:DEGREES
549
root 14.933 5.90819 17.9035 -141.36 45.0863 -25.393
lowerback 33.5196 -0.113088 -3.44464
upperback 16.2243 -0.131651 -1.81247
thorax 0.678813 0.344312 -0.0290526
lowerneck -0.581872 -1.87701 -0.144064
upperneck 15.9181 -2.47757 0.197358
head 4.87398 -1.16495 -0.019034
rclavicle -2.54444e-014 -2.94201e-014
rhumerus -11.9277 -19.9699 -1.87674
rradius 19.9586
rwrist 13.9237
rhand -11.8786 -54.9832
rfingers 7.12502
rthumb 14.174 -84.4796
lclavicle -2.54444e-014 -2.94201e-014
lhumerus 12.883 -33.7841 -15.9169
lradius 21.5724
lwrist 367.985
lhand 10.0697 3.20156
lfingers 7.12502
lthumb 35.1924 29.7125
rfemur -96.1604 -16.7275 3.23068
rtibia 57.1647
rfoot 0.0418352 -6.30013
rtoes 15.3964
lfemur -95.8788 10.4697 -18.2511
ltibia 59.4799
lfoot 11.961 -0.287542
ltoes -6.30458
550
root 14.9288 5.91333 17.9061 -141.299 45.1821 -25.3231
lowerback 33.3999 -0.0907928 -3.51713
upperback 16.2666 -0.120303 -1.89533
thorax 0.768974 0.347499 -0.07922
lowerneck -0.530747 -1.87589 -0.127582
upperneck 15.8409 -2.49074 0.291562
head 4.84267 -1.16571 0.00770934
rclavicle -7.63333e-014 -8.11041e-014
rhumerus -12.0485 -19.8258 -1.54701
rradius 19.9753
rwrist 13.63
rhand -11.304 -55.2023
rfingers 7.12502
rthumb 14.7276 -84.6591
lclavicle -7.63333e-014 -8.11041e-014
lhumerus 13.188 -34.6913 -16.7329
lradius 21.7096
lwrist 369.206
lhand 10.0445 3.33098
lfingers 7.12502
lthumb 35.1685 29.8475
rfemur -96.2899 -16.5431 3.08849
rtibia 57.1909
rfoot 0.125591 -6.31725
rtoes 15.1237
lfemur -95.9791 10.4474 -18.4428
ltibia 59.5279
lfoot 11.9471 -0.274106
ltoes -5.57754
551
root 14.9243 5.91466 17.9069 -141.277 45.333 -25.2597
lowerback 33.3257 -0.0532227 -3.62385
upperback 16.293 -0.101474 -1.99927
thorax 0.826334 0.35417 -0.135967
lowerneck -0.458626 -1.86267 0.13559
upperneck 15.782 -2.45512 0.0700165
head 4.80611 -1.14635 -0.101537
rclavicle -4.29375e-014 5.40694e-014
rhumerus -12.0853 -20.0496 -1.21962
rradius 19.9883
rwrist 13.7643
rhand -10.9461 -55.2386
rfingers 7.12502
rthumb 15.0724 -84.6699
lclavicle -4.29375e-014 5.40694e-014
lhumerus 12.732 -33.7172 -16.1303
lradius 21.6274
lwrist 368.237
lhand 10.0066 3.32208
lfingers 7.12502
lthumb 35.1326 29.8471
rfemur -96.3782 -16.3422 2.91671
rtibia 57.1939
rfoot 0.223614 -6.31357
rtoes 13.8835
lfemur -96.035 10.4576 -18.6822
ltibia 59.583
lfoot 12.0141 -0.322208
ltoes -6.07364
552
root 14.9191 5.91792 17.9078 -141.164 45.4617 -25.0563
lowerback 33.3731 0.00667754 -3.72202
upperback 16.2271 -0.0641873 -2.04273
thorax 0.739234 0.368132 -0.141117
lowerneck -0.292996 -1.81876 0.260072
upperneck 15.7537 -2.37637 -0.0867893
head 4.76607 -1.10879 -0.165172
rclavicle 1.27222e-014 -1.46306e-013
rhumerus -12.0352 -20.4922 -0.873418
rradius 19.9443
rwrist 14.2393
rhand -10.5027 -55.8168
rfingers 7.12502
rthumb 15.4995 -85.2155
lclavicle 1.27222e-014 -1.46306e-013
lhumerus 12.8054 -34.3741 -16.6061
lradius 21.7558
lwrist 368.951
lhand 10.0098 3.38404
lfingers 7.12502
lthumb 35.1356 29.9083
rfemur -96.4591 -16.058 2.78772
rtibia 57.2007
rfoot 0.200368 -6.27303
rtoes 13.9904
lfemur -96.1159 10.5776 -18.9023
ltibia 59.6292
lfoot 12.0493 -0.483488
ltoes -6.4002
553
root 14.9139 5.92194 17.9131 -140.929 45.3496 -24.6868
lowerback 33.4166 -0.0238589 -3.56144
upperback 16.1935 -0.0639137 -2.04228
thorax 0.683121 0.378124 -0.225703
lowerneck -0.286542 -1.76836 0.350401
upperneck 15.8723 -2.29609 -0.182141
head 4.79928 -1.06762 -0.206691
rclavicle 1.00187e-013 1.74931e-014
rhumerus -11.9347 -21.4684 -0.550647
rradius 19.6819
rwrist 15.135
rhand -10.6689 -56.3457
rfingers 7.12502
rthumb 15.3394 -85.7568
lclavicle 1.00187e-013 1.74931e-014
lhumerus 11.6427 -31.3036 -14.5909
lradius 21.3687
lwrist 365.353
lhand 10.169 2.90141
lfingers 7.12502
lthumb 35.2866 29.3901
rfemur -96.5073 -15.8397 2.92394
rtibia 57.209
rfoot 0.129331 -6.17798
rtoes 15.3986
lfemur -96.277 10.698 -18.9981
ltibia 59.6345
lfoot 12.1326 -0.70749
ltoes -6.82148
554
root 14.9079 5.92692 17.9204 -140.808 45.1617 -24.5179
lowerback 33.494 -0.0746835 -3.56869
upperback 16.1154 -0.1548 -1.97253
thorax 0.571634 0.321076 -0.124538
lowerneck -0.372858 -1.77355 0.437321
upperneck 16.1466 -2.25997 -0.511604
head 4.89317 -1.06203 -0.323835
rclavicle 1.27222e-014 -5.56597e-015
rhumerus -11.9004 -20.8786 -0.278342
rradius 19.8663
rwrist 14.4974
rhand -10.0837 -56.4528
rfingers 7.12502
rthumb 15.903 -85.8198
lclavicle 1.27222e-014 -5.56597e-015
lhumerus 12.7352 -35.2028 -17.0916
lradius 21.7472
lwrist 369.675
lhand 9.93912 3.35116
lfingers 7.12502
lthumb 35.0686 29.8912
rfemur -96.6543 -15.8376 3.1877
rtibia 57.3172
rfoot 0.247401 -6.03038
rtoes 15.3987
lfemur -96.4747 10.696 -19.2343
ltibia 59.5611
lfoot 12.3326 -1.00906
ltoes -8.45205
555
root 14.9001 5.92548 17.9238 -140.598 45.111 -24.1006
lowerback 33.646 -0.0613399 -3.49433
upperback 16.0931 -0.123266 -1.95443
thorax 0.491258 0.343063 -0.155259
lowerneck -0.415382 -1.81784 0.818664
upperneck 16.2173 -2.25963 -1.09072
head 4.91001 -1.07431 -0.567036
rclavicle 4.77083e-014 -4.77083e-015
rhumerus -11.9226 -20.6171 0.0599335
rradius 19.9304
rwrist 14.0951
rhand -9.52595 -56.7559
rfingers 7.12502
rthumb 16.4401 -86.0793
lclavicle 4.77083e-014 -4.77083e-015
lhumerus 12.3028 -34.6084 -16.6311
lradius 21.6715
lwrist 368.951
lhand 9.79425 3.41012
lfingers 7.12502
lthumb 34.9312 29.9822
rfemur -96.7439 -15.5716 3.54535
rtibia 57.3105
rfoot 0.530281 -6.03255
rtoes 13.3276
lfemur -96.461 10.7435 -19.0352
ltibia 59.498
lfoot 12.172 -0.960092
ltoes -8.15089
556
root 14.8981 5.91775 17.9759 -139.902 43.2191 -22.7521
lowerback 34.3847 -0.627872 -1.84809
upperback 15.9756 -0.376661 -1.39596
thorax 0.0722656 0.293693 -0.369772
lowerneck -0.311725 -1.86347 1.43671
upperneck 16.1526 -2.21326 -2.08619
head 4.85211 -1.07488 -0.973683
rclavicle -8.11041e-014 -5.32743e-014
rhumerus -11.8908 -20.6831 0.415512
rradius 19.918
rwrist 13.9938
rhand -9.03931 -57.0932
rfingers 7.12502
rthumb 16.9086 -86.3771
lclavicle -8.11041e-014 -5.32743e-014
lhumerus 12.5031 -35.6922 -17.3275
lradius 21.7632
lwrist 370.086
lhand 9.70324 3.50284
lfingers 7.12502
lthumb 34.8448 30.095
rfemur -96.414 -15.7151 5.11119
rtibia 57.5327
rfoot 0.34 -6.31236
rtoes 10.3286
lfemur -96.7331 10.5191 -17.8995
ltibia 59.3188
lfoot 13.0008 -1.38172
ltoes -7.8727
557
root 14.8915 5.931 17.9347 -140.811 45.1744 -24.166
lowerback 33.8134 -0.0590712 -3.68913
upperback 16.0354 -0.20239 -2.0894
thorax 0.374743 0.293967 -0.172649
lowerneck -0.374413 -1.84524 1.40476
upperneck 16.3811 -2.20019 -1.96443
head 4.93541 -1.06154 -0.932914
rclavicle 6.52014e-014 -7.23576e-014
rhumerus -12.0554 -20.3146 0.708264
rradius 19.9189
rwrist 13.4013
rhand -8.57641 -57.397
rfingers 7.12502
rthumb 17.3541 -86.6422
lclavicle 6.52014e-014 -7.23576e-014
lhumerus 11.6227 -33.1433 -15.7469
lradius 21.4195
lwrist 367.107
lhand 9.85791 3.12128
lfingers 7.12502
lthumb 34.9916 29.6793
rfemur -96.8953 -15.408 3.43023
rtibia 57.3704
rfoot 0.871849 -5.8448
rtoes 8.8358
lfemur -96.4798 10.4509 -19.1416
ltibia 59.3874
lfoot 11.8058 -0.622023
ltoes -7.86186
558
root 14.8947 5.93394 17.9821 -140.078 43.1841 -22.5717
lowerback 34.6765 -0.720711 -1.62065
upperback 15.9075 -0.439299 -1.65147
thorax -0.109977 0.29083 -0.738202
lowerneck 0.0216724 -1.87349 2.25987
upperneck 16.0599 -2.15079 -2.87635
head 4.74771 -1.03975 -1.34713
rclavicle -1.30403e-013 -7.39479e-014
rhumerus -12.2085 -19.9121 0.974219
rradius 19.8778
rwrist 12.9017
rhand -7.59351 -57.3699
rfingers 7.12502
rthumb 18.2999 -86.5291
lclavicle -1.30403e-013 -7.39479e-014
lhumerus 12.4007 -35.2169 -17.386
lradius 21.6902
lwrist 369.449
lhand 9.73767 3.33275
lfingers 7.12502
lthumb 34.8775 29.9173
rfemur -96.3849 -15.5185 5.14686
rtibia 57.5903
rfoot 0.216346 -6.30201
rtoes 10.3396
lfemur -96.7601 10.3819 -18.0084
ltibia 59.3022
lfoot 12.7876 -1.16437
ltoes -7.36049
559
root 14.8846 5.9541 17.9332 -140.88 45.2638 -23.7205
lowerback 34.1054 -0.0575227 -3.475
upperback 16.0283 -0.141123 -2.31747
thorax 0.257639 0.360114 -0.543173
lowerneck -0.123023 -1.82152 1.81491
upperneck 16.2668 -2.16896 -2.07867
head 4.85209 -1.0272 -1.03106
rclavicle -1.74931e-014 -4.21423e-014
rhumerus -12.3149 -19.9943 1.38557
rradius 19.7675
rwrist 12.8479
rhand -7.83764 -58.0761
rfingers 7.12502
rthumb 18.0651 -87.2572
lclavicle -1.74931e-014 -4.21423e-014
lhumerus 12.0546 -34.0665 -16.7674
lradius 21.5281
lwrist 368.178
lhand 9.82589 3.10121
lfingers 7.12502
lthumb 34.9612 29.6663
rfemur -96.8482 -15.0277 3.7308
rtibia 57.3321
rfoot 0.86752 -5.8603
rtoes 10.4646
lfemur -96.5202 10.6262 -19.3843
ltibia 59.5004
lfoot 11.6299 -0.625542
ltoes -6.10386
560
root 14.8806 5.94605 17.9904 -139.963 43.1939 -22.0364
lowerback 34.9048 -0.642749 -1.55818
upperback 15.9011 -0.315946 -1.67925
thorax -0.195823 0.365221 -0.838016
lowerneck -0.193006 -1.77064 1.35716
upperneck 16.3722 -2.15268 -1.53392
head 4.90943 -1.0131 -0.787595
rclavicle 8.42847e-014 -3.89618e-014
rhumerus -12.3711 -19.8302 1.83216
rradius 19.7465
rwrist 12.7572
rhand -7.30452 -58.4666
rfingers 7.12502
rthumb 18.5779 -87.5995
lclavicle 8.42847e-014 -3.89618e-014
lhumerus 12.0083 -34.0344 -16.7363
lradius 21.4921
lwrist 368.083
lhand 9.79583 3.05625
lfingers 7.12502
lthumb 34.9327 29.628
rfemur -96.4495 -15.1148 5.61511
rtibia 57.4437
rfoot 0.39638 -6.07546
rtoes 11.3928
lfemur -96.9241 10.582 -18.2033
ltibia 59.4549
lfoot 12.685 -1.36792
ltoes -6.3782
561
root 14.8735 5.95728 17.9367 -140.806 45.482 -23.438
lowerback 34.1738 0.0713143 -3.7168
upperback 15.9557 -0.062728 -2.36966
thorax 0.159894 0.386672 -0.494951
lowerneck -0.227778 -1.77464 1.20794
upperneck 16.5153 -2.16534 -1.42326
head 4.96246 -1.0208 -0.730653
rclavicle 3.81667e-014 8.66701e-014
rhumerus -12.4322 -19.9758 2.20861
rradius 19.8377
rwrist 13.1001
rhand -6.18489 -58.6797
rfingers 7.12502
rthumb 19.6546 -87.7061
lclavicle 3.81667e-014 8.66701e-014
lhumerus 12.0495 -34.6291 -17.0257
lradius 21.5589
lwrist 368.692
lhand 9.61405 3.23445
lfingers 7.12502
lthumb 34.7602 29.8462
rfemur -97.0065 -14.6732 3.84729
rtibia 57.1417
rfoot 0.879511 -5.59427
rtoes 12.6025
lfemur -96.6192 10.5705 -19.3776
ltibia 59.6284
lfoot 11.2056 -0.658794
ltoes -6.70783
562
root 14.8681 5.96001 17.9374 -140.824 45.4872 -23.3139
lowerback 34.2625 0.073858 -3.80079
upperback 15.9357 -0.0974072 -2.36086
thorax 0.109579 0.361326 -0.432617
lowerneck -0.246617 -1.79604 1.22533
upperneck 16.6187 -2.16628 -1.62194
head 4.99465 -1.03202 -0.796228
rclavicle -7.31528e-014 9.38264e-014
rhumerus -12.3853 -19.6223 2.55703
rradius 19.8956
rwrist 12.8437
rhand -5.57139 -58.9252
rfingers 7.12502
rthumb 20.2443 -87.8902
lclavicle -7.31528e-014 9.38264e-014
lhumerus 11.8015 -34.5994 -16.8726
lradius 21.5347
lwrist 368.574
lhand 9.74181 3.34422
lfingers 7.12502
lthumb 34.8814 29.9279
rfemur -96.9934 -14.5465 3.89783
rtibia 57.0995
rfoot 0.783262 -5.68357
rtoes 13.9318
lfemur -96.6582 10.5156 -19.3896
ltibia 59.6717
lfoot 10.9805 -0.851157
ltoes -7.85001
563
root 14.8613 5.96717 17.9366 -140.868 45.6797 -23.2861
lowerback 34.2584 0.156347 -4.05539
upperback 15.9105 -0.0770747 -2.39341
thorax 0.089979 0.355243 -0.339392
lowerneck -0.195129 -1.75852 1.33987
upperneck 16.6557 -2.07979 -1.88053
head 4.99391 -0.996975 -0.891439
rclavicle -3.49861e-014 2.75118e-013
rhumerus -12.2868 -18.815 2.88355
rradius 19.8213
rwrist 12.1043
rhand -6.3523 -58.9304
rfingers 7.12502
rthumb 19.4937 -87.9732
lclavicle -3.49861e-014 2.75118e-013
lhumerus 11.5902 -34.3556 -16.6637
lradius 21.48
lwrist 368.235
lhand 9.97183 3.415
lfingers 7.12502
lthumb 35.0996 29.9477
rfemur -97.085 -14.3746 3.8474
rtibia 56.997
rfoot 0.854259 -5.76685
rtoes 13.9873
lfemur -96.8019 10.5718 -19.5852
ltibia 59.7805
lfoot 10.7263 -0.920112
ltoes -7.78935
